<svg width="200" height="200" viewBox="0 0 200 200" fill="none" xmlns="http://www.w3.org/2000/svg">
  <!-- Background Circle with Gradient -->
  <defs>
    <linearGradient id="bgGradient" x1="0%" y1="0%" x2="100%" y2="100%">
      <stop offset="0%" style="stop-color:#3B82F6;stop-opacity:1" />
      <stop offset="50%" style="stop-color:#8B5CF6;stop-opacity:1" />
      <stop offset="100%" style="stop-color:#06B6D4;stop-opacity:1" />
    </linearGradient>
    <linearGradient id="textGradient" x1="0%" y1="0%" x2="100%" y2="0%">
      <stop offset="0%" style="stop-color:#FFFFFF;stop-opacity:1" />
      <stop offset="100%" style="stop-color:#E5E7EB;stop-opacity:1" />
    </linearGradient>
    <filter id="glow">
      <feGaussianBlur stdDeviation="3" result="coloredBlur"/>
      <feMerge> 
        <feMergeNode in="coloredBlur"/>
        <feMergeNode in="SourceGraphic"/>
      </feMerge>
    </filter>
  </defs>
  
  <!-- Background Circle -->
  <circle cx="100" cy="100" r="95" fill="url(#bgGradient)"/>
  
  <!-- CY Letters with Modern Style -->
  <g filter="url(#glow)">
    <!-- Letter C - Modern Block Style -->
    <rect x="65" y="60" width="25" height="8" rx="4" fill="white"/>
    <rect x="65" y="76" width="25" height="8" rx="4" fill="white"/>
    <rect x="65" y="60" width="8" height="24" rx="4" fill="white"/>
    
    <!-- Letter Y - Modern Block Style -->
    <rect x="100" y="60" width="8" height="12" rx="4" fill="url(#textGradient)"/>
    <rect x="108" y="60" width="8" height="12" rx="4" fill="url(#textGradient)"/>
    <rect x="116" y="60" width="8" height="12" rx="4" fill="url(#textGradient)"/>
    <rect x="104" y="72" width="8" height="12" rx="4" fill="url(#textGradient)"/>
    <rect x="112" y="72" width="8" height="12" rx="4" fill="url(#textGradient)"/>
    <rect x="108" y="84" width="8" height="12" rx="4" fill="url(#textGradient)"/>
    
    <!-- Yield Arrow - Modern Style -->
    <path d="M75 100 L95 85 L115 100" stroke="white" stroke-width="4" fill="none" stroke-linecap="round" stroke-linejoin="round"/>
    <path d="M95 85 L95 115" stroke="white" stroke-width="4" fill="none" stroke-linecap="round" stroke-linejoin="round"/>
    <path d="M90 110 L95 115 L100 110" stroke="white" stroke-width="4" fill="none" stroke-linecap="round" stroke-linejoin="round"/>
  </g>
  
  <!-- Decorative Elements -->
  <circle cx="100" cy="100" r="80" fill="none" stroke="white" stroke-width="2" opacity="0.2"/>
  <circle cx="100" cy="100" r="65" fill="none" stroke="white" stroke-width="1" opacity="0.3"/>
  
  <!-- Yield Dots -->
  <circle cx="100" cy="35" r="3" fill="white" opacity="0.8"/>
  <circle cx="100" cy="165" r="3" fill="white" opacity="0.8"/>
  <circle cx="35" cy="100" r="3" fill="white" opacity="0.8"/>
  <circle cx="165" cy="100" r="3" fill="white" opacity="0.8"/>
</svg> 