<svg width="200" height="200" viewBox="0 0 200 200" fill="none" xmlns="http://www.w3.org/2000/svg">
  <!-- Background Circle with Gradient -->
  <defs>
    <linearGradient id="bgGradient" x1="0%" y1="0%" x2="100%" y2="100%">
      <stop offset="0%" style="stop-color:#06B6D4;stop-opacity:1" />
      <stop offset="100%" style="stop-color:#8B5CF6;stop-opacity:1" />
    </linearGradient>
    <linearGradient id="textGradient" x1="0%" y1="0%" x2="100%" y2="0%">
      <stop offset="0%" style="stop-color:#06B6D4;stop-opacity:1" />
      <stop offset="100%" style="stop-color:#8B5CF6;stop-opacity:1" />
    </linearGradient>
    <filter id="glow">
      <feGaussianBlur stdDeviation="2" result="coloredBlur"/>
      <feMerge> 
        <feMergeNode in="coloredBlur"/>
        <feMergeNode in="SourceGraphic"/>
      </feMerge>
    </filter>
  </defs>
  
  <!-- Background Circle -->
  <circle cx="100" cy="100" r="95" fill="url(#bgGradient)"/>
  
  <!-- CY Letters -->
  <g filter="url(#glow)">
    <!-- Letter C -->
    <path d="M70 60 Q60 60 60 70 Q60 80 70 80 L80 80 Q85 80 85 75 Q85 70 80 70 L70 70 Q65 70 65 75 Q65 80 70 80" 
          fill="white" stroke="white" stroke-width="2"/>
    
    <!-- Letter Y -->
    <path d="M90 60 L95 70 L100 60 L105 70 L110 60 L105 80 L100 75 L95 80 L90 60" 
          fill="url(#textGradient)" stroke="url(#textGradient)" stroke-width="2"/>
    
    <!-- Upward Arrow/Swoosh -->
    <path d="M75 85 Q85 75 95 85 Q105 95 115 85" 
          stroke="white" stroke-width="3" fill="none" stroke-linecap="round" stroke-linejoin="round"/>
  </g>
  
  <!-- Decorative Elements -->
  <circle cx="100" cy="100" r="85" fill="none" stroke="white" stroke-width="1" opacity="0.3"/>
  <circle cx="100" cy="100" r="75" fill="none" stroke="white" stroke-width="1" opacity="0.2"/>
</svg> 